<?xml version="1.0" encoding="UTF-8" standalone="no"?>
<!-- Created with Inkscape (http://www.inkscape.org/) -->

<svg
   width="75mm"
   height="50mm"
   viewBox="0 0 75 50"
   version="1.1"
   id="svg185"
   xml:space="preserve"
   xmlns="http://www.w3.org/2000/svg"
   xmlns:svg="http://www.w3.org/2000/svg"><defs
     id="defs182" /><g
     id="layer1" /><g
     id="layer2"><path
       style="fill:#ffffff;fill-opacity:1;stroke:none;stroke-width:1;stroke-linecap:round;stroke-linejoin:round;stroke-dasharray:none;stroke-opacity:1;paint-order:markers fill stroke"
       d="M 38.501461,0 0,23.87169 31.579846,10.854343 l 26.978545,21.276084 14.43314,-4.79793 z"
       id="path490" /></g><g
     id="layer3"
     style="fill:#ff7a00;fill-opacity:1"><path
       style="fill:#ff7a00;fill-opacity:1;stroke:none;stroke-width:1;stroke-linecap:round;stroke-linejoin:round;stroke-dasharray:none;stroke-opacity:1;paint-order:markers fill stroke"
       d="m 58.047141,2.398967 8.84865,0.117983 v 15.770259 l -8.88798,-5.977755 z"
       id="path2088" /></g><g
     id="layer4"><path
       style="fill:#ff7a00;fill-opacity:1;stroke:none;stroke-width:1;stroke-linecap:round;stroke-linejoin:round;stroke-dasharray:none;stroke-opacity:1;paint-order:markers fill stroke"
       d="M 73.491471,28.315677 56.670681,34.018137 29.692134,12.820708 -0.499513,27.450477 v 20.48954 l 6.280632,-0.0393 -0.07865,-18.01192 24.579579,-14.944381 26.074013,19.978281 -0.0393,13.01735 5.74179,0.0393 -0.0393,-12.30946 6.80363,-0.0786 v 12.30945 l 4.66864,0.0787 z"
       id="path2091" /></g><g
     id="layer5"><path
       style="fill:#ffffff;fill-opacity:1;stroke:none;stroke-width:1;stroke-linecap:round;stroke-linejoin:round;stroke-dasharray:none;stroke-opacity:1;paint-order:markers fill stroke"
       d="m 23.43909,27.863417 v 5.52549 l 5.387843,-0.0197 0.01966,-5.54516 z"
       id="path2094" /><path
       style="fill:#ffffff;fill-opacity:1;stroke:none;stroke-width:1;stroke-linecap:round;stroke-linejoin:round;stroke-dasharray:none;stroke-opacity:1;paint-order:markers fill stroke"
       d="m 31.737156,27.765097 0.03933,5.58448 5.328845,0.0393 -0.059,-5.58449 z"
       id="path2096" /><path
       style="fill:#ffffff;fill-opacity:1;stroke:none;stroke-width:1;stroke-linecap:round;stroke-linejoin:round;stroke-dasharray:none;stroke-opacity:1;paint-order:markers fill stroke"
       d="m 23.360435,36.181147 0.11798,5.87943 5.407509,-0.0983 -0.01966,-5.74179 z"
       id="path2098" /><path
       style="fill:#ffffff;fill-opacity:1;stroke:none;stroke-width:1;stroke-linecap:round;stroke-linejoin:round;stroke-dasharray:none;stroke-opacity:1;paint-order:markers fill stroke"
       d="m 31.717492,36.240137 0.01966,5.76145 5.269859,0.059 0.0983,-5.82044 z"
       id="path2100" /></g></svg>
